<?xml version="1.0" encoding="UTF-8"?>
<svg version="1.1" xmlns="http://www.w3.org/2000/svg" width="1254" height="1254">
<path d="M0 0 C413.82 0 827.64 0 1254 0 C1254 413.82 1254 827.64 1254 1254 C840.18 1254 426.36 1254 0 1254 C0 840.18 0 426.36 0 0 Z " fill="#010000" transform="translate(0,0)"/>
<path d="M0 0 C3.57956532 1.71796305 6.48713617 3.80133107 9.625 6.25 C10.18131104 6.68256104 10.73762207 7.11512207 11.31079102 7.56079102 C12.5408417 8.5177574 13.7697058 9.47625036 14.99755859 10.43603516 C17.11607878 12.0906609 19.23921149 13.73922403 21.36328125 15.38671875 C28.93729202 21.26413156 36.49186473 27.16542942 44.02319336 33.09741211 C47.82906921 36.09101462 51.65730031 39.05385287 55.5 42 C61.78477801 46.8189656 68.01356022 51.70713895 74.23388672 56.60888672 C76.57164989 58.45027109 78.91169601 60.28873999 81.25195312 62.12695312 C83.00287577 63.50225885 84.75339042 64.87808277 86.50390625 66.25390625 C88.82280124 68.07603378 91.14322515 69.89618794 93.46484375 71.71484375 C99.60628595 76.5284766 105.72440795 81.36900994 111.8125 86.25 C118.11240734 91.29965361 124.44857668 96.29415366 130.87109375 101.1875 C136.9966211 105.86139006 143.03431101 110.62325771 149 115.5 C154.76950923 120.21441954 160.59975862 124.81991507 166.5234375 129.33984375 C170.70501501 132.53065994 174.85103274 135.7669711 179 139 C184.23734372 143.07920069 189.48197426 147.14799911 194.75 151.1875 C203.15270007 157.64051935 211.49487848 164.17158749 219.75 170.8125 C224.29856637 174.46175831 228.89568374 178.04657655 233.5 181.625 C234.65749756 182.52460449 234.65749756 182.52460449 235.83837891 183.44238281 C239.75617952 186.4853504 243.67709956 189.52422384 247.6015625 192.55859375 C255.65802166 198.79546115 263.65651185 205.08815985 271.52392578 211.56274414 C275.28813194 214.65164588 279.12415476 217.61181774 283.03125 220.51757812 C286.13994057 222.85834811 289.16120361 225.30425677 292.1875 227.75 C297.46210789 231.99168855 302.77840931 236.16888596 308.1550293 240.28027344 C312.12893934 243.32153732 316.07020809 246.40197885 320 249.5 C324.4780587 253.02919705 328.9747191 256.53155831 333.5 260 C339.78485376 264.81886509 346.01356182 269.70714022 352.23388672 274.60888672 C355.15371048 276.90874237 358.07701893 279.20415945 361 281.5 C362.16668361 282.4166451 363.33335027 283.33331177 364.5 284.25 C365.36625 284.930625 365.36625 284.930625 366.25 285.625 C368 287 369.75 288.375 371.5 289.75 C372.07733887 290.20358887 372.65467773 290.65717773 373.24951172 291.12451172 C374.41794152 292.04263354 375.58623548 292.96092826 376.75439453 293.87939453 C379.64300506 296.15022369 382.53379548 298.41814946 385.4296875 300.6796875 C392.52489133 306.22759731 399.55042021 311.85019102 406.49560547 317.58544922 C410.20669164 320.62886234 413.95758323 323.41110654 418 326 C422.19654779 324.24184532 425.45106349 321.35310501 428.9375 318.5 C430.28825946 317.40655932 431.63983574 316.31412698 432.9921875 315.22265625 C433.66733398 314.67754395 434.34248047 314.13243164 435.03808594 313.57080078 C437.84945021 311.31989016 440.70058113 309.12355279 443.5625 306.9375 C453.17694312 299.57758945 462.68359032 292.09567326 472.0625 284.4375 C477.8774427 279.6894173 483.76920264 275.06768987 489.73828125 270.515625 C493.2873045 267.79538975 496.76811768 264.99282958 500.25 262.1875 C505.58289974 257.89327952 510.98281081 253.7007544 516.4375 249.5625 C522.81653178 244.7201822 529.06423739 239.74146859 535.25927734 234.66650391 C539.31005242 231.35424021 543.40118768 228.10966889 547.5625 224.9375 C552.17869514 221.41715438 556.72946911 217.82966187 561.25 214.1875 C566.58289919 209.89327995 571.98280091 205.70074039 577.4375 201.5625 C583.72469864 196.79012595 589.87842386 191.88171485 595.98022461 186.87524414 C600.74512349 182.98083875 605.59537163 179.21645701 610.5 175.5 C616.86116941 170.67967627 623.08860561 165.72241929 629.26171875 160.6640625 C634.31366598 156.53247001 639.46135593 152.55361351 644.65234375 148.59765625 C648.51981421 145.62294723 652.28772925 142.52837739 656.0625 139.4375 C661.6195538 134.89105887 667.25006784 130.50501047 673.01953125 126.23046875 C682.00142817 119.50876083 690.71691581 112.4331269 699.46411133 105.41088867 C703.9629484 101.80773711 708.51390926 98.27990519 713.0949707 94.78222656 C717.19489918 91.64270338 721.22850884 88.42666944 725.25 85.1875 C730.58296334 80.89336283 735.98272732 76.70064626 741.4375 72.5625 C747.06784575 68.29010247 752.6009118 63.92349349 758.0625 59.4375 C763.92301279 54.62486964 769.90888584 50.02967903 776.00244141 45.51708984 C780.74924655 41.98391041 785.36469713 38.31756755 789.9375 34.5625 C796.11215886 29.49202971 802.39339268 24.58821019 808.75634766 19.7565918 C814.05907633 15.72885293 819.31131341 11.64201881 824.53564453 7.51318359 C826.02156224 6.33933116 827.51064094 5.16948303 829 4 C830.11955078 3.10667969 830.11955078 3.10667969 831.26171875 2.1953125 C833 1 833 1 835 1 C835.32567501 10.7183975 835.57375707 20.43489411 835.72537041 30.15757465 C835.79817629 34.67350953 835.89673046 39.1856897 836.05615234 43.69946289 C836.20930558 48.06351635 836.29217496 52.42398304 836.3282814 56.79051781 C836.35397474 58.4482796 836.40416033 60.10586394 836.48022079 61.76207924 C837.0345453 74.3433531 837.0345453 74.3433531 833.66278839 78.74608994 C830.39150642 81.97073416 826.72146194 84.46290094 822.81462193 86.85191345 C819.91026839 88.68945833 817.26253915 90.81334308 814.5625 92.9375 C813.66688354 93.62320068 813.66688354 93.62320068 812.75317383 94.32275391 C808.70655617 97.43018921 804.72376873 100.61267994 800.75 103.8125 C795.41696624 108.10655931 790.01719464 112.29924147 784.5625 116.4375 C778.18428039 121.27920128 771.93776155 126.25772278 765.74291992 131.33129883 C760.63398054 135.50800085 755.43675907 139.55159148 750.19140625 143.5546875 C746.87368901 146.08858767 743.59112045 148.66581281 740.3125 151.25 C734.97267485 155.45606772 729.61673039 159.64081392 724.25 163.8125 C723.49460937 164.3998291 722.73921875 164.9871582 721.9609375 165.59228516 C718.10231885 168.59152871 714.24170728 171.58817635 710.37890625 174.58203125 C702.74011925 180.50675294 695.13955596 186.47053163 687.61035156 192.53393555 C682.98483044 196.24529533 678.28647086 199.85261609 673.5625 203.4375 C667.1814169 208.2815233 660.93272151 213.26310889 654.73413086 218.33789062 C649.17740664 222.87937147 643.51437889 227.25937111 637.80908203 231.61328125 C634.21286142 234.3698984 630.63860911 237.1548752 627.0625 239.9375 C625.90451904 240.83843384 625.90451904 240.83843384 624.72314453 241.75756836 C619.57990748 245.76238784 614.44993548 249.78368597 609.32836914 253.81616211 C604.56647802 257.56247433 599.78469024 261.28286836 595 265 C584.14532756 273.43580075 573.33246154 281.9183114 562.60693359 290.51782227 C554.97663632 296.63056236 547.27945019 302.65792299 539.57421875 308.67578125 C533.39103503 313.51155057 527.26244461 318.40378159 521.1875 323.375 C515.01503458 328.42275159 508.72830346 333.29563637 502.3737793 338.11132812 C495.96951074 342.98207657 489.73487449 348.04660503 483.5078125 353.140625 C480.15133526 355.88473596 476.75084677 358.56504973 473.31640625 361.2109375 C470.30120546 363.53970978 467.30707135 365.89479247 464.3125 368.25 C463.71695312 368.71792969 463.12140625 369.18585938 462.5078125 369.66796875 C459.47225887 372.0535109 456.43922687 374.44216826 453.41015625 376.8359375 C446.02103598 382.66950705 438.55336507 388.37958268 431 394 C428.74858928 395.68562142 426.49928043 397.37403749 424.25 399.0625 C422.5 400.375 420.75 401.6875 419 403 C412.87761867 399.034336 407.03871923 394.82876734 401.3125 390.3125 C400.53358398 389.70237061 399.75466797 389.09224121 398.95214844 388.46362305 C396.6323658 386.64544712 394.31594993 384.82305393 392 383 C390.73849657 382.01014219 389.47679409 381.02053798 388.21484375 380.03125 C384.22294586 376.90006696 380.23626273 373.76228244 376.25146484 370.62207031 C370.02526686 365.71595676 363.79054914 360.82345478 357.5 356 C351.21360628 351.1797315 344.98349608 346.28997373 338.76171875 341.38671875 C337.02010212 340.01582318 335.27612115 338.64800009 333.53125 337.28125 C326.85915539 332.05319334 320.22103457 326.78535598 313.60791016 321.48291016 C307.68836965 316.74083846 301.7267245 312.05364252 295.75585938 307.37646484 C293.33447203 305.47827493 290.91634681 303.57594878 288.49804688 301.67382812 C281.11261173 295.86586456 273.71266566 290.07869292 266.25634766 284.36181641 C261.00672749 280.33493855 255.79981681 276.2647355 250.64453125 272.1171875 C245.73005482 268.18270268 240.76819448 264.30818567 235.81445312 260.42333984 C233.45558512 258.57293612 231.09818687 256.72066638 228.7409668 254.86816406 C227.57848224 253.95460867 226.4158842 253.04119766 225.25317383 252.12792969 C222.32210743 249.825621 219.39230043 247.52174102 216.46484375 245.21484375 C210.83306606 240.77919584 205.18895018 236.36216192 199.5 232 C193.2152525 227.1809938 186.98644046 222.29286158 180.76611328 217.39111328 C177.84628958 215.09125768 174.92300912 212.79580474 172 210.5 C168.54570963 207.78663406 165.09183949 205.07274644 161.640625 202.35546875 C149.26194683 192.61234357 136.84712417 182.91692347 124.3125 173.375 C118.26958257 168.77302705 112.30853591 164.08131291 106.39306641 159.31689453 C101.83147862 155.64787083 97.2122315 152.06214835 92.56152344 148.50708008 C89.34229182 146.04294618 86.15769668 143.54242889 83 141 C79.28774814 138.012236 75.53251288 135.08548853 71.75 132.1875 C62.28108419 124.9309477 52.91444232 117.54737121 43.609375 110.08203125 C38.70294022 106.16716637 33.75815604 102.30097647 28.81884766 98.42773438 C27.02740349 97.02151082 25.23796914 95.612773 23.44921875 94.203125 C22.86043945 93.73946533 22.27166016 93.27580566 21.66503906 92.7980957 C16.88970511 89.03708156 16.88970511 89.03708156 15.14260864 87.60090637 C12.89325968 85.85842062 12.89325968 85.85842062 9.82589722 84.13871765 C1.09318246 78.76613636 1.09318246 78.76613636 -0.73081017 74.15079308 C-1.82305957 68.94645461 -1.49393316 63.67791961 -1.26953125 58.3984375 C-1.24524221 56.70886352 -1.22675719 55.0191971 -1.21379089 53.32949829 C-1.16447301 48.91124485 -1.03710369 44.49867103 -0.89263916 40.0826416 C-0.75892842 35.5649907 -0.70012861 31.04640879 -0.63476562 26.52734375 C-0.49591668 17.68241861 -0.27447435 8.84168392 0 0 Z " fill="#B658CE" transform="translate(211,605)"/>
<path d="M0 0 C3.23048748 1.4199255 5.38242488 3.13619387 7.86328125 5.6328125 C8.58580078 6.35726563 9.30832031 7.08171875 10.05273438 7.828125 C10.79845703 8.58609375 11.54417969 9.3440625 12.3125 10.125 C13.04662109 10.85976563 13.78074219 11.59453125 14.53710938 12.3515625 C17.96632384 15.808162 21.30542761 19.30002377 24.48046875 22.9921875 C28.42243279 27.56393946 32.69770594 31.76989208 37 36 C41.9598035 40.87658532 46.75509344 45.79070492 51.2890625 51.06640625 C54.20635114 54.36334205 57.3561487 57.42097038 60.5 60.5 C64.24173527 64.16458609 67.90417338 67.83276561 71.3125 71.8125 C75.76776342 76.9794028 80.64428669 81.71296722 85.5 86.5 C87.32539339 88.29957453 89.14835671 90.10161769 90.96875 91.90625 C91.76732422 92.69322266 92.56589844 93.48019531 93.38867188 94.29101562 C95.43988937 96.41894282 97.37855626 98.57031242 99.30639648 100.80639648 C103.06050599 105.1315233 107.05700971 109.16705898 111.12890625 113.19140625 C111.88163315 113.94034653 112.63436005 114.6892868 113.40989685 115.46092224 C115.79166164 117.83058189 118.17665252 120.19695143 120.5625 122.5625 C123.71258879 125.68584726 126.85925052 128.81258996 130.00390625 131.94140625 C131.07288902 132.99794151 131.07288902 132.99794151 132.16346741 134.07582092 C136.33082743 138.22286792 140.23287435 142.48540835 144 147 C147.69245465 145.27067987 150.06738575 143.17695068 152.95703125 140.2734375 C153.65610847 139.57367294 153.65610847 139.57367294 154.36930847 138.85977173 C155.35413345 137.8719326 156.33653381 136.88167105 157.31665039 135.88916016 C158.79208043 134.39566953 160.2751574 132.9101425 161.75976562 131.42578125 C166.41205673 126.75557677 170.91757874 122.01288098 175.2097168 117.00634766 C179.75803518 111.90910499 184.7525039 107.21395139 189.6171875 102.421875 C194.04522513 98.03421461 198.30361635 93.59476588 202.36035156 88.86230469 C205.05321341 85.80376535 207.96128229 82.97127054 210.875 80.125 C214.91777506 76.43209363 214.91777506 76.43209363 218 72 C218.66 72 219.32 72 220 72 C220.24081299 71.43249023 220.48162598 70.86498047 220.72973633 70.28027344 C222.25625408 67.53999364 224.08200967 65.70960709 226.32421875 63.515625 C227.18853516 62.66226563 228.05285156 61.80890625 228.94335938 60.9296875 C230.30170898 59.60324219 230.30170898 59.60324219 231.6875 58.25 C237.05875707 52.98421489 242.31786196 47.72969984 247.21020508 42.01464844 C251.54761113 37.13233023 256.3202567 32.64530818 260.97265625 28.06640625 C265.29477997 23.78590811 269.43892809 19.44172353 273.40087891 14.82617188 C275.79319861 12.09417929 278.34764998 9.54328287 280.9375 7 C281.43056641 6.51144531 281.92363281 6.02289063 282.43164062 5.51953125 C283.61873229 4.34396475 284.80900498 3.17161174 286 2 C290.01517138 3.64081523 292.89074053 6.44396946 296 9.375 C296.8511438 10.16813599 296.8511438 10.16813599 297.71948242 10.97729492 C302.18898373 15.16919515 306.52256633 19.48750674 310.82788086 23.84692383 C314.06479249 27.11073351 317.41005865 30.15809953 320.91015625 33.1328125 C325.4726012 37.20916518 329.71084962 41.63988942 334 46 C332.35275662 50.27596118 329.13382147 53.10075777 325.92578125 56.234375 C325.3237236 56.83123108 324.72166595 57.42808716 324.10136414 58.04302979 C322.17644085 59.95017565 320.24498653 61.85052066 318.3125 63.75 C315.78436908 66.24138019 313.25944213 68.73594151 310.73828125 71.234375 C310.13001495 71.837052 309.52174866 72.439729 308.89505005 73.06066895 C305.34870751 76.59494972 301.98083653 80.21139316 298.74291992 84.03222656 C294.276288 89.07509717 289.3391459 93.7078528 284.54296875 98.43652344 C277.9463938 104.90434845 277.9463938 104.90434845 271.75 111.75 C265.31224418 119.27604311 257.99385169 126.05637383 250.9609375 133.01855469 C241.60730001 142.22927921 241.60730001 142.22927921 232.8125 151.96484375 C227.77477351 157.62142888 222.21235523 162.83308893 216.82470703 168.15478516 C211.28193364 173.63577345 205.79864052 179.09988691 200.73925781 185.03808594 C197.07099861 189.17594823 193.06345385 192.99676716 189.125 196.875 C187.41699476 198.5575885 185.71114749 200.24237133 184.0078125 201.9296875 C182.88850342 203.03159424 182.88850342 203.03159424 181.74658203 204.15576172 C179.93306123 205.89194424 179.93306123 205.89194424 179 208 C178.34 208 177.68 208 177 208 C176.74114014 208.58555664 176.48228027 209.17111328 176.21557617 209.77441406 C174.90778276 212.1688396 173.50263899 213.71093329 171.55078125 215.609375 C170.52500977 216.61871094 170.52500977 216.61871094 169.47851562 217.6484375 C168.76373047 218.34195313 168.04894531 219.03546875 167.3125 219.75 C163.19497163 223.76449476 159.14797901 227.75924385 155.41796875 232.140625 C152.23841966 235.85355047 148.78445914 238.9106456 145 242 C142.14153993 239.17097124 139.28905016 236.33599221 136.4375 233.5 C135.63763672 232.70851563 134.83777344 231.91703125 134.01367188 231.1015625 C130.40142308 227.50405758 126.8543787 223.90254025 123.53515625 220.03125 C119.28914305 215.08998678 114.63862459 210.56939139 110 206 C104.72945434 200.8081192 99.58570143 195.60917286 94.76953125 189.9921875 C91.36011732 186.15377447 87.65936686 182.59796808 84 179 C82.45581479 177.48172394 80.91411794 175.96091265 79.375 174.4375 C78.70210937 173.77621094 78.02921875 173.11492187 77.3359375 172.43359375 C75.39919846 170.41588736 73.57061323 168.3633155 71.74609375 166.24609375 C67.91641866 161.83971585 63.83761721 157.72789948 59.6875 153.625 C58.91494873 152.85623535 58.14239746 152.0874707 57.34643555 151.29541016 C54.90005818 148.86114235 52.4504586 146.43015894 50 144 C46.76786312 140.79463822 43.53917465 137.58585927 40.3125 134.375 C39.21844849 133.293396 39.21844849 133.293396 38.10229492 132.18994141 C34.80407833 128.90734173 31.60300157 125.59719155 28.56835938 122.06835938 C24.47559571 117.3211484 20.04579531 112.93924741 15.59375 108.53125 C14.71021851 107.65150513 13.82668701 106.77176025 12.91638184 105.86535645 C10.11334867 103.07445494 7.30720084 100.28670768 4.5 97.5 C0.7989945 93.82601262 -2.89831822 90.14834398 -6.59375 86.46875 C-7.43248657 85.63831177 -8.27122314 84.80787354 -9.13537598 83.95227051 C-13.40275253 79.70256425 -17.49094322 75.37669164 -21.41690063 70.81018066 C-23.74237528 68.1511377 -26.20952304 65.67866635 -28.71484375 63.1875 C-29.21544815 62.68831055 -29.71605255 62.18912109 -30.23182678 61.67480469 C-31.79800764 60.1141263 -33.36766471 58.55700153 -34.9375 57 C-36.01390654 55.92862113 -37.09008014 54.85700818 -38.16601562 53.78515625 C-40.77466745 51.18740362 -43.38644471 48.59282038 -46 46 C-44.64941886 42.98611927 -43.14395225 40.8965323 -40.8046875 38.57421875 C-40.17046875 37.94193359 -39.53625 37.30964844 -38.8828125 36.65820312 C-38.22023438 36.00787109 -37.55765625 35.35753906 -36.875 34.6875 C-36.235625 34.04876953 -35.59625 33.41003906 -34.9375 32.75195312 C-31.72096845 29.56448662 -28.45053855 26.48707183 -25.01953125 23.53125 C-20.73602096 19.83019263 -16.77545365 15.85129965 -12.8125 11.8125 C-4.64194577 3.48821944 -4.64194577 3.48821944 0 0 Z " fill="#F067C0" transform="translate(484,284)"/>
<path d="M0 0 C3.02874459 1.35631828 5.1251941 2.87646766 7.46411133 5.22119141 C8.45082573 6.20329086 8.45082573 6.20329086 9.45747375 7.20523071 C10.15857773 7.9135202 10.8596817 8.62180969 11.58203125 9.3515625 C12.31443527 10.08442474 13.04683929 10.81728699 13.80143738 11.57235718 C15.35119847 13.12513829 16.89852945 14.68034803 18.44360352 16.23779297 C20.78812668 18.60043828 23.14041748 20.95511735 25.49414062 23.30859375 C27.00307417 24.82244833 28.51155215 26.33675717 30.01953125 27.8515625 C30.71456253 28.5477066 31.40959381 29.24385071 32.12568665 29.96109009 C35.33571756 33.20181269 38.45292686 36.47659666 41.42944336 39.93383789 C45.44070022 44.57660675 49.75871807 48.88418107 54.109375 53.20703125 C54.9580011 54.0542424 55.8066272 54.90145355 56.68096924 55.77433777 C59.36828716 58.45610287 62.05907402 61.1343558 64.75 63.8125 C66.57184662 65.62932464 68.39346343 67.44637976 70.21484375 69.26367188 C74.20969546 73.24873657 78.20673038 77.23159613 82.20574951 81.21247864 C82.79785217 81.80236069 83.38995483 82.39224274 84 83 C84.57357239 83.53199509 85.14714478 84.06399017 85.73809814 84.61210632 C87 86 87 86 87 88 C87.99 88.33 88.98 88.66 90 89 C91.48583984 90.50927734 91.48583984 90.50927734 93.0859375 92.4609375 C97.32998779 97.46325216 101.95260412 102.02561031 106.625 106.625 C111.66724549 111.58919215 116.52499797 116.52008523 121 122 C122.64379965 123.68922416 124.31420564 125.35268311 126 127 C127.40372299 128.40096315 128.8059206 129.80345548 130.20703125 131.20703125 C130.95791016 131.95791016 131.70878906 132.70878906 132.48242188 133.48242188 C135.98828125 136.98828125 139.49414062 140.49414062 143 144 C148.19756669 139.7043247 152.81558656 135.14763976 157.375 130.1875 C163.81202467 123.25713506 170.40360495 116.51310328 177.15185547 109.88549805 C181.04578284 106.0403276 184.711754 102.08528833 188.28295898 97.93969727 C191.58669036 94.20755653 195.18784742 90.77170275 198.75 87.2890625 C201.68927497 84.38915282 204.5067729 81.45407849 207.1875 78.3125 C212.62962222 72.00789858 218.67946167 66.26524808 224.60253906 60.41796875 C226.17468215 58.86414002 227.74363084 57.30713323 229.3125 55.75 C230.23675781 54.83734375 231.16101563 53.9246875 232.11328125 52.984375 C234.298846 50.7749243 236.34650653 48.47558698 238.37695312 46.12304688 C241.96100937 41.98823642 245.76416132 38.12467871 249.65625 34.28125 C250.36221313 33.57907349 251.06817627 32.87689697 251.79553223 32.15344238 C254.77897375 29.18616234 257.7684071 26.22494637 260.75732422 23.26318359 C262.95490579 21.08381535 265.14937938 18.90135053 267.34375 16.71875 C268.00749634 16.063302 268.67124268 15.407854 269.35510254 14.73254395 C273.26818636 10.83973389 276.93032157 6.83436205 280.44494629 2.57629395 C282 1 282 1 285 0 C287.83810494 2.83267835 290.66785847 5.67314872 293.48828125 8.5234375 C302.0866729 17.22436567 302.0866729 17.22436567 311.1796875 25.3984375 C314.1831783 28.04099378 316.93810323 30.93028553 319.74609375 33.77734375 C323.02674112 37.01250554 326.48608732 40.02227018 330 43 C328.46607212 46.65464986 326.2737222 48.94394 323.45703125 51.703125 C322.09288086 53.05083984 322.09288086 53.05083984 320.70117188 54.42578125 C319.73865469 55.36756931 318.77576181 56.30897355 317.8125 57.25 C310.5318915 64.31145178 310.5318915 64.31145178 303.69921875 71.796875 C297.62557145 78.90036637 290.74584551 85.30555353 284.10644531 91.87304688 C275.21827981 100.64967937 275.21827981 100.64967937 266.85644531 109.92089844 C262.2782418 115.04819737 257.26392273 119.7953883 252.375 124.625 C250.15065618 126.82252912 247.9298079 129.02350843 245.7109375 131.2265625 C245.21185883 131.71734283 244.71278015 132.20812317 244.19857788 132.71377563 C241.73493893 135.16037345 239.43642359 137.65428224 237.26806641 140.36083984 C236.51960449 141.2317627 235.77114258 142.10268555 235 143 C234.34 143 233.68 143 233 143 C232.73865768 143.58698669 232.47731537 144.17397339 232.20805359 144.77874756 C230.92831728 147.13180327 229.57288362 148.66208484 227.67114258 150.54003906 C226.99316116 151.21464172 226.31517975 151.88924438 225.61665344 152.58428955 C224.88335312 153.30413025 224.1500528 154.02397095 223.39453125 154.765625 C222.63710129 155.51785339 221.87967133 156.27008179 221.09928894 157.04510498 C218.67505694 159.45153225 216.24427017 161.85119238 213.8125 164.25 C211.39940908 166.63533204 208.98783879 169.02215052 206.57926941 171.41204834 C205.08169436 172.89752375 203.58145555 174.38032038 202.07807922 175.85992432 C198.06613451 179.83410044 194.26608444 183.91517004 190.58061218 188.19329834 C188.47629212 190.59861863 186.24457584 192.850987 183.96875 195.09375 C183.07542969 195.97933594 182.18210937 196.86492187 181.26171875 197.77734375 C179.42057292 199.59244792 177.57942708 201.40755208 175.73828125 203.22265625 C171.19529094 207.72631331 166.80922538 212.26961107 162.64892578 217.12841797 C159.81649374 220.3433164 156.74853894 223.31721914 153.6875 226.3125 C152.45990461 227.5145471 151.23454735 228.71888527 150.01171875 229.92578125 C149.21447388 230.70562378 149.21447388 230.70562378 148.40112305 231.5012207 C146.77930377 233.15445886 146.77930377 233.15445886 145 236 C142.02363795 234.66420352 139.96048142 233.20765397 137.6875 230.875 C137.15511719 230.33617187 136.62273437 229.79734375 136.07421875 229.2421875 C134.31803689 227.34379129 132.63815386 225.4093765 130.95703125 223.4453125 C126.24153915 218.03241044 121.10858212 213.03667848 116 208 C114.08024056 206.1072613 112.16412746 204.21093242 110.25 202.3125 C109.40953125 201.48363281 108.5690625 200.65476562 107.703125 199.80078125 C105.61432705 197.63652094 103.63946005 195.45290229 101.67773438 193.17773438 C97.94025554 188.86989147 93.9612192 184.85115765 89.90625 180.84375 C89.15589478 180.0971814 88.40553955 179.35061279 87.63244629 178.5814209 C85.2574008 176.21847975 82.87913183 173.8588263 80.5 171.5 C77.36160783 168.38839354 74.22667255 165.27336245 71.09375 162.15625 C70.03250916 161.10745667 70.03250916 161.10745667 68.9498291 160.03747559 C65.75188674 156.85512274 62.65216134 153.64747254 59.71875 150.21875 C55.40496494 145.2185356 50.7136291 140.60149911 46.02885437 135.95368958 C44.36886941 134.30666117 42.71219765 132.65636048 41.05627441 131.00524902 C37.54034349 127.50065361 34.02048047 124.00002445 30.5 120.5 C26.41507415 116.43880992 22.33185107 112.37593706 18.25285339 108.30879211 C16.63373229 106.69607417 15.01159216 105.08643782 13.38928223 103.47692871 C8.65279632 98.76370732 4.04532178 94.00382081 -0.30130005 88.92355347 C-3.64274621 85.13980675 -7.26851298 81.63094897 -10.85546875 78.08203125 C-11.67952713 77.26175949 -12.50358551 76.44148773 -13.35261536 75.59635925 C-15.9618139 72.99928192 -18.57423948 70.4054896 -21.1875 67.8125 C-24.6422234 64.38441238 -28.09359434 60.95300008 -31.54296875 57.51953125 C-32.33156784 56.7392305 -33.12016693 55.95892975 -33.93266296 55.15498352 C-37.51839637 51.58530187 -40.96184902 48.06246205 -44 44 C-42.67367903 41.02201885 -41.27763935 39.07485772 -38.8671875 36.890625 C-38.23361328 36.30861328 -37.60003906 35.72660156 -36.94726562 35.12695312 C-36.26341797 34.50755859 -35.57957031 33.88816406 -34.875 33.25 C-28.27140964 27.17614159 -21.86387921 20.94940191 -15.58154297 14.54394531 C-11.75702927 10.66830443 -7.81540445 7.0078691 -3.68164062 3.46289062 C-2.4105254 2.35712372 -1.19131322 1.19131322 0 0 Z " fill="#D960C5" transform="translate(486,457)"/>
<path d="M0 0 C1.22668457 1.2479248 1.22668457 1.2479248 2.73632812 3.10742188 C7.8865732 9.15698967 13.56187299 14.67263552 19.1934967 20.2686615 C21.25671313 22.31897573 23.31666812 24.37251866 25.37585449 26.42687988 C29.74775359 30.78741743 34.12357646 35.14400401 38.5 39.5 C43.57617701 44.55248326 48.65068129 49.60662342 53.72096252 54.6650238 C55.73895718 56.67659187 57.75996659 58.68509595 59.78112793 60.69348145 C65.13910785 66.03029831 70.43217812 71.34274409 75.33312988 77.10827637 C78.96672178 81.23202398 82.94078418 85.03998527 86.84375 88.90625 C88.2619165 90.31862932 89.68008007 91.73101161 91.09807587 93.14356232 C93.56323132 95.59787501 96.03170509 98.04884533 98.5 100.5 C101.44985631 103.42937203 104.39907839 106.35936285 107.34436035 109.29333496 C109.17068429 111.11220613 110.99925361 112.92882652 112.83044434 114.74279785 C117.21544214 119.11050615 121.45873812 123.52964395 125.47035217 128.2442627 C128.14179217 131.31055467 131.04171693 134.14743757 133.9375 137 C134.82018555 137.87591797 134.82018555 137.87591797 135.72070312 138.76953125 C137.14479793 140.18204805 138.5720525 141.5913781 140 143 C143.69576872 139.98304595 147.07987565 137.02776481 150.15234375 133.375 C155.11439272 127.63009549 160.56582754 122.38781902 165.97265625 117.06640625 C169.54096012 113.53246807 173.05390496 110.01107733 176.3125 106.1875 C181.87197623 99.71112989 188.10683543 93.83938639 194.17529297 87.84521484 C195.8169273 86.22187975 197.45538019 84.5953788 199.09375 82.96875 C199.5825061 82.48829224 200.07126221 82.00783447 200.5748291 81.51281738 C203.2977107 78.80877608 205.87246544 76.026301 208.37963867 73.12036133 C212.01600772 68.92327837 215.88269052 65.00657361 219.83203125 61.10546875 C220.54985275 60.39143387 221.26767426 59.67739899 222.00724792 58.94172668 C224.27322594 56.68784598 226.54244382 54.43727273 228.8125 52.1875 C231.82188207 49.20469643 234.82794345 46.2186032 237.83203125 43.23046875 C238.52158401 42.54921432 239.21113678 41.8679599 239.92158508 41.1660614 C240.55952499 40.53142471 241.1974649 39.89678802 241.85473633 39.24291992 C242.41542313 38.68746994 242.97610992 38.13201996 243.55378723 37.55973816 C245.21193392 35.85431589 245.21193392 35.85431589 247 33 C247.66 33 248.32 33 249 33 C249.27230438 32.40237854 249.54460876 31.80475708 249.82516479 31.18902588 C250.97324125 29.04985857 252.08346405 27.67404464 253.79736328 25.97558594 C254.35779327 25.41530701 254.91822327 24.85502808 255.49563599 24.277771 C256.09777924 23.68595032 256.69992249 23.09412964 257.3203125 22.484375 C258.24830154 21.5606308 258.24830154 21.5606308 259.19503784 20.6182251 C261.16703814 18.65739664 263.14588737 16.70364699 265.125 14.75 C266.46530164 13.41973201 267.80515083 12.089008 269.14453125 10.7578125 C272.42446589 7.4998985 275.71055942 4.24831467 279 1 C284.290152 4.77661846 288.99707535 8.75654466 293.5 13.4375 C297.58875547 17.61100871 301.71901295 21.61048269 306.17578125 25.39453125 C308.90993504 27.80082077 311.42483826 30.41114393 313.96875 33.015625 C316.67019929 35.65473316 319.57249781 38.01513288 322.53125 40.359375 C324 42 324 42 324 46 C322.1747118 48.1631651 320.37376824 50.06676631 318.33984375 52.015625 C317.75715225 52.59028503 317.17446075 53.16494507 316.57411194 53.75701904 C314.70444171 55.59767663 312.82172683 57.42425665 310.9375 59.25 C309.08080912 61.06387208 307.22703762 62.88062621 305.37586975 64.70013428 C304.22422161 65.83048093 303.06906535 66.95726978 301.90965271 68.07965088 C298.99297929 70.9261862 296.23007481 73.84081524 293.56665039 76.92675781 C290.00514301 81.04901787 286.21856008 84.89238386 282.34375 88.71875 C281.2848053 89.77201477 281.2848053 89.77201477 280.20446777 90.84655762 C277.22102625 93.81383766 274.2315929 96.77505363 271.24267578 99.73681641 C269.04509421 101.91618465 266.85062062 104.09864947 264.65625 106.28125 C263.99250366 106.936698 263.32875732 107.592146 262.64489746 108.26745605 C258.83862856 112.0540046 255.25748806 115.96186558 251.74987793 120.02526855 C248.82712664 123.3235837 245.69778665 126.40524737 242.5625 129.5 C241.87873291 130.17998047 241.19496582 130.85996094 240.49047852 131.56054688 C237.60262227 134.43225143 234.70876925 137.29788438 231.81542969 140.1640625 C229.68734275 142.27392787 227.56237083 144.38689645 225.4375 146.5 C224.79562744 147.13357422 224.15375488 147.76714844 223.49243164 148.41992188 C220.41945785 151.47645836 217.46223241 154.57573134 214.63671875 157.86328125 C210.45133403 162.70865317 205.92224522 167.18410108 201.375 171.6875 C200.01640869 173.04041138 200.01640869 173.04041138 198.63037109 174.4206543 C195.27078694 177.76605444 191.90668738 181.10688392 188.54223633 184.4473877 C185.23365649 187.732918 181.92897519 191.02233791 178.625 194.3125 C177.76438965 195.16481201 176.9037793 196.01712402 176.01708984 196.89526367 C171.6876553 201.20720986 167.53068181 205.59001605 163.54855347 210.22436523 C161.37668097 212.7147231 159.06589386 215.04631666 156.72265625 217.375 C155.79775391 218.29667969 154.87285156 219.21835937 153.91992188 220.16796875 C152.96750432 221.11203607 152.01502969 222.05604582 151.0625 223 C150.0824469 223.97502386 149.1026276 224.9502828 148.12304688 225.92578125 C145.75097687 228.28616618 143.3765914 230.64416905 141 233 C136.35187209 229.11250046 131.93211473 225.08118128 127.65625 220.7890625 C127.08346313 220.21723236 126.51067627 219.64540222 125.92053223 219.0562439 C124.71939378 217.85578062 123.51949574 216.65407505 122.32080078 215.45117188 C120.50794221 213.63296563 118.68981672 211.82015053 116.87109375 210.0078125 C115.69499187 208.83104953 114.51920038 207.65397624 113.34375 206.4765625 C112.81124634 205.94608307 112.27874268 205.41560364 111.73010254 204.86904907 C108.96912747 202.09125451 106.33076991 199.25271058 103.78112793 196.27914429 C100.1307092 192.09287888 96.28115271 188.15330771 92.33984375 184.2421875 C91.60879425 183.51259827 90.87774475 182.78300903 90.12454224 182.03131104 C88.55046614 180.46101515 86.97523677 178.8918746 85.3989563 177.3237915 C82.8988955 174.83659413 80.40205928 172.34619908 77.90600586 169.85498047 C72.60681191 164.56716686 67.30370033 159.28329317 62 154 C55.84995992 147.87362356 49.70157116 141.74560874 43.55740356 135.61334229 C41.10729902 133.1696812 38.65418307 130.72907152 36.20092773 128.28857422 C34.68718805 126.77846985 33.17359015 125.26822333 31.66015625 123.7578125 C30.98566437 123.08848694 30.31117249 122.41916138 29.61624146 121.72955322 C25.80808393 117.92181584 22.21483097 113.99414161 18.69529533 109.91918373 C16.06164416 106.93772063 13.25483095 104.14717846 10.42211914 101.35620117 C9.80662201 100.74537689 9.19112488 100.13455261 8.55697632 99.50521851 C7.2365789 98.19522773 5.9150743 96.88635213 4.59254646 95.57851219 C2.50112325 93.50929714 0.41384976 91.43597903 -1.67225647 89.36140442 C-7.59797579 83.46912742 -13.5280153 77.58124956 -19.46801758 71.70336914 C-23.11343327 68.09549856 -26.75158174 64.48043733 -30.38510323 60.86058998 C-31.76949604 59.48426445 -33.15666345 58.11072407 -34.54661369 56.74001122 C-36.48057454 54.83238979 -38.40518862 52.91579494 -40.32788086 50.99682617 C-40.90598007 50.43108383 -41.48407928 49.86534149 -42.07969666 49.28245544 C-46 45.34195531 -46 45.34195531 -46 42 C-44.53125 40.45703125 -44.53125 40.45703125 -42.5 38.8125 C-38.07512711 35.10433187 -34.0401692 31.11907876 -30 27 C-25.44896112 22.36007364 -20.82733675 17.92377511 -15.90136719 13.68310547 C-12.43440589 10.61412355 -9.25664612 7.26095049 -6.05078125 3.92382812 C-2.21128319 0 -2.21128319 0 0 0 Z " fill="#B955CA" transform="translate(489,628)"/>
<path d="M0 0 C0.33 0 0.66 0 1 0 C2.16711095 8.66996704 2.09744014 17.27369392 2 26 C2.57363281 26.10441406 3.14726562 26.20882812 3.73828125 26.31640625 C6.36393759 27.10999841 8.01647807 28.27155634 10.1875 29.9375 C10.88230469 30.46214844 11.57710937 30.98679687 12.29296875 31.52734375 C14 33 14 33 15 35 C17.28401108 36.46410966 19.57392556 37.78696278 22 39 C22 39.66 22 40.32 22 41 C22.804375 41.268125 23.60875 41.53625 24.4375 41.8125 C25.7059375 42.4003125 25.7059375 42.4003125 27 43 C27.33 43.99 27.66 44.98 28 46 C28.66 46.165 29.32 46.33 30 46.5 C30.66 46.665 31.32 46.83 32 47 C32.33 47.99 32.66 48.98 33 50 C34.31687121 50.69862182 35.6551777 51.35682412 37 52 C39.15439041 53.59770038 41.27189045 55.21286503 43.375 56.875 C47.48080717 60.1078435 51.6462439 63.10153842 56 66 C57.18838715 66.97408783 58.35897424 67.97083951 59.5 69 C61.72203269 70.95974375 63.9316566 72.66984463 66.4375 74.25 C67.7059375 75.11625 67.7059375 75.11625 69 76 C69 76.66 69 77.32 69 78 C70.485 78.495 70.485 78.495 72 79 C70.515 79.495 70.515 79.495 69 80 C67.36523438 79.04711914 67.36523438 79.04711914 65.59375 77.53515625 C64.93793945 76.98641846 64.28212891 76.43768066 63.60644531 75.87231445 C62.91131836 75.27507568 62.21619141 74.67783691 61.5 74.0625 C60.04872031 72.84675213 58.59559167 71.63320799 57.140625 70.421875 C56.43099609 69.82955078 55.72136719 69.23722656 54.99023438 68.62695312 C52.48454173 66.57862931 49.89144636 64.68159362 47.25 62.8125 C42.31397086 59.29834194 37.7120762 55.46352254 33.08203125 51.55859375 C30.0520234 49.02222268 26.94603735 46.59521176 23.8125 44.1875 C23.29228271 43.77129395 22.77206543 43.35508789 22.23608398 42.92626953 C19.08222147 40.43803924 15.91127741 38.34924501 12.3984375 36.39453125 C2.98748662 30.80417444 2.98748662 30.80417444 0 26 C-2.03416695 17.50615796 -1.06230162 8.58589665 0 0 Z " fill="#DD68BE" transform="translate(212,656)"/>
<path d="M0 0 C0.8269043 1.64038086 0.8269043 1.64038086 1 4 C-0.67601099 6.13775926 -2.28402049 7.88925267 -4.23046875 9.75390625 C-4.77729813 10.29603256 -5.3241275 10.83815887 -5.88752747 11.39671326 C-7.64283106 13.13063336 -9.4149862 14.84619548 -11.1875 16.5625 C-12.36371398 17.72220912 -13.53885801 18.8830045 -14.71289062 20.04492188 C-23.99030251 29.17707217 -23.99030251 29.17707217 -28 32 C-28.66 31.67 -29.32 31.34 -30 31 C-29.23333008 30.23856689 -28.46666016 29.47713379 -27.67675781 28.69262695 C-24.8190428 25.85308235 -21.9646961 23.01017198 -19.11132812 20.16625977 C-17.87851356 18.93845796 -16.6448009 17.71155721 -15.41015625 16.4855957 C-13.63041165 14.71805096 -11.8539769 12.94723593 -10.078125 11.17578125 C-9.53005188 10.63286942 -8.98197876 10.08995758 -8.41729736 9.53059387 C-5.38762764 6.50136401 -2.61186412 3.40809696 0 0 Z " fill="#B152C0" transform="translate(698,700)"/>
<path d="M0 0 C0.66 0 1.32 0 2 0 C2 24.09 2 48.18 2 73 C1.67 73 1.34 73 1 73 C0.98969254 72.15697327 0.97938507 71.31394653 0.96876526 70.44537354 C0.87077914 62.49983344 0.76826304 54.55436749 0.66066074 46.60895157 C0.60550141 42.52415884 0.55209267 38.43935886 0.50268555 34.35449219 C0.45493878 30.41222737 0.40259241 26.47004799 0.34705925 22.52788544 C0.32668238 21.02402627 0.30796168 19.52014371 0.29092598 18.01624298 C0.26677837 15.90950577 0.23673841 13.80292869 0.20532227 11.69628906 C0.18977798 10.49715881 0.1742337 9.29802856 0.15821838 8.06256104 C0.0266184 5.51524025 -0.36865023 3.44409557 -1 1 C-0.67 0.67 -0.34 0.34 0 0 Z " fill="#EB73C9" transform="translate(1044,606)"/>
<path d="M0 0 C4.64748828 1.99830577 8.38875859 5.33079316 12.31054688 8.45507812 C14.86815674 10.4639966 16.88828208 11.96276069 20 13 C21.66666667 14.66666667 23.33333333 16.33333333 25 18 C26.6396875 19.0828125 26.6396875 19.0828125 28.3125 20.1875 C29.199375 20.785625 30.08625 21.38375 31 22 C31 22.66 31 23.32 31 24 C31.99 24.33 32.98 24.66 34 25 C33.01 25.33 32.02 25.66 31 26 C29.36523438 25.04711914 29.36523438 25.04711914 27.59375 23.53515625 C26.93729492 22.98601563 26.28083984 22.436875 25.60449219 21.87109375 C24.91000977 21.27425781 24.21552734 20.67742188 23.5 20.0625 C22.05927653 18.85310029 20.61656081 17.64606997 19.171875 16.44140625 C18.46353516 15.8498877 17.75519531 15.25836914 17.02539062 14.64892578 C13.56303421 11.83012694 9.92029306 9.29957911 6.234375 6.78125 C3.72128363 4.77780653 1.91761016 2.56854205 0 0 Z " fill="#CF61BB" transform="translate(250,710)"/>
<path d="M0 0 C4.80988589 1.53661761 8.11380514 4.27010726 11.9375 7.4375 C13.25990359 8.51495294 14.58283399 9.59175959 15.90625 10.66796875 C16.57914062 11.21759277 17.25203125 11.7672168 17.9453125 12.33349609 C21.24601449 15.01061014 24.59072338 17.63087767 27.9375 20.25 C28.8510022 20.96627563 28.8510022 20.96627563 29.78295898 21.69702148 C31.18812215 22.7986743 32.59397652 23.89944541 34 25 C33.01 25.495 33.01 25.495 32 26 C27.65939723 22.67605004 23.32697581 19.34166853 19 16 C18.3699707 15.51402344 17.73994141 15.02804687 17.09082031 14.52734375 C15.2240728 13.08472589 13.36151131 11.63686582 11.5 10.1875 C10.92556152 9.7443042 10.35112305 9.3011084 9.75927734 8.84448242 C6.24928093 6.10162242 3.0895112 3.21055549 0 0 Z " fill="#DE68C6" transform="translate(314,686)"/>
<path d="M0 0 C0.66 0.33 1.32 0.66 2 1 C-10.36702128 13.76595745 -10.36702128 13.76595745 -18 16 C-19.13350534 18.01669827 -19.13350534 18.01669827 -20 20 C-22.125 20.75 -22.125 20.75 -24 21 C-24 20.34 -24 19.68 -24 19 C-21.91088631 17.21191134 -19.8132691 15.5340303 -17.625 13.875 C-16.34344502 12.88711427 -15.06219735 11.89882974 -13.78125 10.91015625 C-12.82412109 10.17563232 -12.82412109 10.17563232 -11.84765625 9.42626953 C-9.24783766 7.41937997 -6.6856649 5.36912598 -4.125 3.3125 C-3.32320312 2.66925781 -2.52140625 2.02601563 -1.6953125 1.36328125 C-1.13585937 0.91339844 -0.57640625 0.46351563 0 0 Z " fill="#7F46C5" transform="translate(653,913)"/>
<path d="M0 0 C1.98 0.99 1.98 0.99 4 2 C3.67 2.99 3.34 3.98 3 5 C2.34 5 1.68 5 1 5 C1.16371094 5.99 1.32742187 6.98 1.49609375 8 C2.36617368 14.96063943 2.1046041 21.99800876 2.0625 29 C2.05747576 30.45702971 2.05291449 31.9140611 2.04882812 33.37109375 C2.03789388 36.9140977 2.02068 40.45703797 2 44 C1.01 44.495 1.01 44.495 0 45 C0 30.15 0 15.3 0 0 Z " fill="#F86CCB" transform="translate(212,606)"/>
<path d="M0 0 C0 0.66 0 1.32 0 2 C-1.828125 3.5859375 -1.828125 3.5859375 -4.25 5.375 C-7.42972554 7.733816 -10.20892759 10.19712602 -13 13 C-14.1446875 13.6496875 -14.1446875 13.6496875 -15.3125 14.3125 C-19.0813467 16.67898514 -21.94624998 19.78784219 -25 23 C-25.99 22.34 -26.98 21.68 -28 21 C-24.07549984 17.80540128 -20.14901058 14.61329141 -16.21875 11.42578125 C-13.73324099 9.40991784 -11.25263573 7.38861457 -8.78125 5.35546875 C-7.9046875 4.64003906 -7.028125 3.92460938 -6.125 3.1875 C-5.36445312 2.56230469 -4.60390625 1.93710937 -3.8203125 1.29296875 C-2 0 -2 0 0 0 Z " fill="#8548C3" transform="translate(698,879)"/>
<path d="M0 0 C0.66 0.33 1.32 0.66 2 1 C-2.96906227 6.8280757 -8.09563077 12.1163329 -14 17 C-13.01 18.65 -12.02 20.3 -11 22 C-14 22 -14 22 -15.6875 20.5 C-16.120625 20.005 -16.55375 19.51 -17 19 C-15.60652624 15.84795019 -13.97514921 13.73828227 -11.5234375 11.328125 C-10.51796875 10.33232422 -10.51796875 10.33232422 -9.4921875 9.31640625 C-8.79351562 8.63449219 -8.09484375 7.95257813 -7.375 7.25 C-6.66859375 6.55261719 -5.9621875 5.85523438 -5.234375 5.13671875 C-3.49401297 3.41987512 -1.74915019 1.70788168 0 0 Z " fill="#D45DAA" transform="translate(455,311)"/>
<path d="M0 0 C3.2092925 0.59890329 5.07915593 1.61003888 7.57421875 3.6953125 C8.23808594 4.24356689 8.90195312 4.79182129 9.5859375 5.35668945 C10.27945312 5.94023193 10.97296875 6.52377441 11.6875 7.125 C13.11791972 8.30928239 14.54890606 9.49288074 15.98046875 10.67578125 C16.66931152 11.2476416 17.3581543 11.81950195 18.06787109 12.40869141 C21.64659354 15.3561406 25.31607846 18.18589327 29 21 C25.53192388 21 24.95310542 20.47427846 22.3046875 18.40234375 C21.5923999 17.85094727 20.8801123 17.29955078 20.14624023 16.73144531 C19.39673096 16.13944336 18.64722168 15.54744141 17.875 14.9375 C17.11324463 14.34420898 16.35148926 13.75091797 15.56665039 13.13964844 C14.05767304 11.9636213 12.55086159 10.78480899 11.04638672 9.60302734 C8.52712098 7.62957246 5.98141636 5.69151697 3.4375 3.75 C2.27131018 2.85937488 1.11546481 1.95338873 0 1 C0 0.67 0 0.34 0 0 Z " fill="#D563C5" transform="translate(348,713)"/>
<path d="M0 0 C6.41069287 5.27101414 12.18590512 11.09128152 18 17 C17.34 17.66 16.68 18.32 16 19 C10.39 13.39 4.78 7.78 -1 2 C-0.67 1.34 -0.34 0.68 0 0 Z " fill="#1B0713" transform="translate(479,372)"/>
<path d="M0 0 C5.80891746 4.81867247 11.13065552 10.01256408 16.4375 15.375 C17.26443359 16.20644531 18.09136719 17.03789063 18.94335938 17.89453125 C20.96455531 19.9274104 22.98336335 21.96259963 25 24 C20.92412524 24 20.01409161 22.74008328 17 20 C15.24259673 18.06181122 13.53735634 16.08512148 11.8359375 14.09765625 C8.22319362 9.9699042 4.57302514 6.04868343 0 3 C0 2.01 0 1.02 0 0 Z " fill="#CA5AC2" transform="translate(490,631)"/>
<path d="M0 0 C3.32762325 0.58979756 4.99871838 1.62907641 7.4375 3.9375 C11.1461663 7.31541238 15.01520923 10.3970597 19 13.4375 C19.58837646 13.88665771 20.17675293 14.33581543 20.78295898 14.79858398 C22.18702518 15.86784555 23.59327719 16.93423592 25 18 C24.67 18.66 24.34 19.32 24 20 C19.94594403 16.82218091 15.8948017 13.6407176 11.84765625 10.45410156 C10.68427439 9.5385225 9.52029614 8.62370024 8.35546875 7.70996094 C6.9429562 6.60130284 5.53384673 5.48831279 4.125 4.375 C3.32320312 3.74335937 2.52140625 3.11171875 1.6953125 2.4609375 C1.13585937 1.97882812 0.57640625 1.49671875 0 1 C0 0.67 0 0.34 0 0 Z " fill="#7747BB" transform="translate(574,964)"/>
<path d="M0 0 C0 3 0 3 -1.875 4.9375 C-2.57625 5.618125 -3.2775 6.29875 -4 7 C-4.309375 7.639375 -4.61875 8.27875 -4.9375 8.9375 C-7.70987612 14.31917129 -13.4142871 18.15434451 -18 22 C-18 19 -18 19 -15.83984375 16.58203125 C-14.87895149 15.65203261 -13.91106966 14.72921888 -12.9375 13.8125 C-11.92772551 12.83535678 -10.91991849 11.85617639 -9.9140625 10.875 C-9.4180957 10.39160156 -8.92212891 9.90820312 -8.41113281 9.41015625 C-5.43095288 6.43203872 -2.70739981 3.22485507 0 0 Z " fill="#190816" transform="translate(763,555)"/>
<path d="M0 0 C0.66 0.66 1.32 1.32 2 2 C0.37660195 3.70884005 -1.29319053 5.37446717 -3 7 C-3.66 7 -4.32 7 -5 7 C-5 7.66 -5 8.32 -5 9 C-6.57421875 10.55078125 -6.57421875 10.55078125 -8.6875 12.3125 C-11.95300964 15.08499308 -15.01915985 17.92600859 -18 21 C-18.66 20.67 -19.32 20.34 -20 20 C-13.4 13.4 -6.8 6.8 0 0 Z " fill="#1D0A1B" transform="translate(784,534)"/>
<path d="M0 0 C1.32 0 2.64 0 4 0 C4 0.66 4 1.32 4 2 C4.66 2 5.32 2 6 2 C6 2.66 6 3.32 6 4 C6.639375 4.12375 7.27875 4.2475 7.9375 4.375 C8.618125 4.58125 9.29875 4.7875 10 5 C10.33 5.66 10.66 6.32 11 7 C11.99 7.33 12.98 7.66 14 8 C14 8.66 14 9.32 14 10 C14.66 10 15.32 10 16 10 C16 10.66 16 11.32 16 12 C16.66 12 17.32 12 18 12 C18 12.66 18 13.32 18 14 C18.66 14 19.32 14 20 14 C19.67 14.66 19.34 15.32 19 16 C16.20253021 13.90346124 13.41308741 11.79649538 10.625 9.6875 C9.8309375 9.09259766 9.036875 8.49769531 8.21875 7.88476562 C7.45820312 7.30791016 6.69765625 6.73105469 5.9140625 6.13671875 C5.2123291 5.60780029 4.5105957 5.07888184 3.78759766 4.53393555 C2 3 2 3 0 0 Z " fill="#7C47B6" transform="translate(533,932)"/>
<path d="M0 0 C0.66 0.33 1.32 0.66 2 1 C-1.98647826 4.46650283 -6.0194764 7.86251757 -10.125 11.1875 C-10.93195312 11.84105469 -11.73890625 12.49460937 -12.5703125 13.16796875 C-14.96155379 14.97101082 -17.40525286 16.50871294 -20 18 C-18.65450166 14.90447985 -17.27896571 13.1303832 -14.62890625 11.0546875 C-13.97212891 10.53519531 -13.31535156 10.01570312 -12.63867188 9.48046875 C-11.95353516 8.95066406 -11.26839844 8.42085937 -10.5625 7.875 C-9.88123047 7.33746094 -9.19996094 6.79992187 -8.49804688 6.24609375 C-5.71381407 4.05906661 -2.94814817 1.96543212 0 0 Z " fill="#E268BF" transform="translate(1025,621)"/>
<path d="M0 0 C-1.33277412 3.99832236 -3.9817986 5.53104536 -7.25 7.9375 C-8.40135207 8.80036722 -9.55239796 9.66364316 -10.703125 10.52734375 C-11.25806641 10.94097168 -11.81300781 11.35459961 -12.38476562 11.78076172 C-14.62768246 13.47379779 -16.81664159 15.23115137 -19 17 C-19.66 16.34 -20.32 15.68 -21 15 C-19.69675781 14.00419922 -19.69675781 14.00419922 -18.3671875 12.98828125 C-17.2030743 12.09642033 -16.03901467 11.2044895 -14.875 10.3125 C-14.30523438 9.87744141 -13.73546875 9.44238281 -13.1484375 8.99414062 C-10.26666869 6.78369296 -7.44697783 4.53908462 -4.6953125 2.16796875 C-2 0 -2 0 0 0 Z " fill="#984EC5" transform="translate(773,820)"/>
<path d="M0 0 C4.32504836 1.65863505 7.09418825 4.871041 10.25 8.125 C11.08144531 8.96998047 11.08144531 8.96998047 11.9296875 9.83203125 C13.29104485 11.21686028 14.64614859 12.60783204 16 14 C15.34 14.66 14.68 15.32 14 16 C11.65861457 13.71643754 9.32833018 11.42186626 7 9.125 C5.99839844 8.14853516 5.99839844 8.14853516 4.9765625 7.15234375 C4.34492188 6.52714844 3.71328125 5.90195312 3.0625 5.2578125 C2.47597656 4.6817627 1.88945312 4.10571289 1.28515625 3.51220703 C0 2 0 2 0 0 Z " fill="#D661AD" transform="translate(468,359)"/>
<path d="M0 0 C0.99 0.33 1.98 0.66 3 1 C2.27039063 1.55558594 1.54078125 2.11117188 0.7890625 2.68359375 C-1.97111214 4.9760077 -4.26045894 7.36887333 -6.625 10.0625 C-9.02139336 12.78195662 -11.39928468 15.47382748 -14 18 C-14.33 17.01 -14.66 16.02 -15 15 C-10.05 10.05 -5.1 5.1 0 0 Z " fill="#E165B1" transform="translate(770,286)"/>
<path d="M0 0 C0.66 0.33 1.32 0.66 2 1 C-7.41002278 11.55808656 -7.41002278 11.55808656 -12 16 C-12.99 15.67 -13.98 15.34 -15 15 C-10.05 10.05 -5.1 5.1 0 0 Z " fill="#E363B2" transform="translate(479,288)"/>
<path d="M0 0 C0.66 0.66 1.32 1.32 2 2 C1.34 2 0.68 2 0 2 C-0.31324219 2.81597656 -0.31324219 2.81597656 -0.6328125 3.6484375 C-2.51193429 6.88052699 -5.12103758 9.15501931 -7.875 11.625 C-8.66970703 12.35976563 -8.66970703 12.35976563 -9.48046875 13.109375 C-12.15720711 15.54035823 -14.63748378 17.61925663 -18 19 C-12.44964797 12.21623641 -6.23557973 6.14477032 0 0 Z " fill="#0A020D" transform="translate(706,783)"/>
<path d="M0 0 C0.66 0.66 1.32 1.32 2 2 C1.52949219 2.45890625 1.05898438 2.9178125 0.57421875 3.390625 C-4.03368398 7.91549295 -4.03368398 7.91549295 -8 13 C-8.99 12.67 -9.98 12.34 -11 12 C-7.49102731 7.81576108 -3.91939465 3.80411834 0 0 Z " fill="#CA5AB9" transform="translate(681,548)"/>
<path d="M0 0 C0.33 0 0.66 0 1 0 C2.16711095 8.66996704 2.09744014 17.27369392 2 26 C3.32 26.33 4.64 26.66 6 27 C6 27.99 6 28.98 6 30 C3.12618332 28.86857611 1.87457535 28.3677432 0 26 C-0.791362 21.57648933 -0.56149668 17.22592037 -0.375 12.75 C-0.34792969 11.52796875 -0.32085937 10.3059375 -0.29296875 9.046875 C-0.22224838 6.02947259 -0.12359116 3.0156243 0 0 Z " fill="#ED69C8" transform="translate(212,656)"/>
<path d="M0 0 C4.91935902 4.11619836 9.52647956 8.40410362 14 13 C13.34 13.66 12.68 14.32 12 15 C9.99068029 13.07141188 7.99272731 11.133102 6 9.1875 C5.42765625 8.64029297 4.8553125 8.09308594 4.265625 7.52929688 C2.78599462 6.07608846 1.38703342 4.54183626 0 3 C0 2.01 0 1.02 0 0 Z " fill="#210A18" transform="translate(450,342)"/>
<path d="M0 0 C0 4.27142576 -2.48286435 6.16071473 -5.25 9.125 C-5.74113281 9.67542969 -6.23226562 10.22585938 -6.73828125 10.79296875 C-11.25671167 15.6969719 -11.25671167 15.6969719 -15 16 C-10.30233025 10.33870569 -5.25276628 5.14771096 0 0 Z " fill="#D560B4" transform="translate(644,417)"/>
<path d="M0 0 C0 4.84183796 -3.31505191 7.2636808 -6.5 10.6875 C-8.65886745 12.68445239 -10.30760082 13.90309663 -13 15 C-11.38989473 10.92623969 -8.46177729 8.23492931 -5.375 5.25 C-4.859375 4.74339844 -4.34375 4.23679687 -3.8125 3.71484375 C-2.54616661 2.47196098 -1.2736856 1.23534724 0 0 Z " fill="#A14BB4" transform="translate(650,750)"/>
<path d="M0 0 C0.99 0.33 1.98 0.66 3 1 C0.91986415 2.62923935 -1.16387974 4.2534547 -3.25 5.875 C-4.12978516 6.56529297 -4.12978516 6.56529297 -5.02734375 7.26953125 C-7.90929077 9.50384972 -10.62571167 11.5467174 -14 13 C-13.67 12.01 -13.34 11.02 -13 10 C-12.34 10 -11.68 10 -11 10 C-10.67 9.01 -10.34 8.02 -10 7 C-9.01 7 -8.02 7 -7 7 C-7 6.34 -7 5.68 -7 5 C-6.34 5 -5.68 5 -5 5 C-5 4.34 -5 3.68 -5 3 C-4.01 3 -3.02 3 -2 3 C-2 2.34 -2 1.68 -2 1 C-1.34 0.67 -0.68 0.34 0 0 Z " fill="#8A4CCF" transform="translate(755,907)"/>
<path d="M0 0 C1.32 0.66 2.64 1.32 4 2 C3.67 2.66 3.34 3.32 3 4 C2.01 4 1.02 4 0 4 C-2.12708293 5.76248102 -2.12708293 5.76248102 -4.1875 8 C-4.90292969 8.7425 -5.61835938 9.485 -6.35546875 10.25 C-6.89816406 10.8275 -7.44085938 11.405 -8 12 C-8.66 11.67 -9.32 11.34 -10 11 C-8.52116808 9.35386588 -7.04192523 7.70810092 -5.5625 6.0625 C-4.73878906 5.14597656 -3.91507812 4.22945313 -3.06640625 3.28515625 C-1 1 -1 1 0 0 Z " fill="#EA68C5" transform="translate(486,457)"/>
<path d="M0 0 C14.61538462 9.23076923 14.61538462 9.23076923 17 14 C12.50542413 12.53238339 9.24015087 10.02169576 5.6875 7 C5.13771484 6.54882812 4.58792969 6.09765625 4.02148438 5.6328125 C2.63810029 4.47111357 1.31349409 3.24017305 0 2 C0 1.34 0 0.68 0 0 Z " fill="#864AC2" transform="translate(592,903)"/>
<path d="M0 0 C0.33 0.99 0.66 1.98 1 3 C0.33613281 3.59167969 -0.32773437 4.18335938 -1.01171875 4.79296875 C-5.44938962 8.7641983 -9.85786795 12.71979688 -14 17 C-14.66 16.67 -15.32 16.34 -16 16 C-10.72 10.72 -5.44 5.44 0 0 Z " fill="#160819" transform="translate(769,718)"/>
<path d="M0 0 C3.91939465 3.80411834 7.49102731 7.81576108 11 12 C8 12 8 12 5.73828125 10.03125 C4.53751953 8.77828125 4.53751953 8.77828125 3.3125 7.5 C2.50425781 6.6646875 1.69601562 5.829375 0.86328125 4.96875 C0.24839844 4.3190625 -0.36648438 3.669375 -1 3 C-0.67 2.01 -0.34 1.02 0 0 Z " fill="#100612" transform="translate(511,741)"/>
<path d="M0 0 C1.7143618 1.95927063 3.38405168 3.95880212 5 6 C4.4225 5.835 3.845 5.67 3.25 5.5 C0.73335631 4.85537969 0.73335631 4.85537969 -3 5 C-4.7511573 6.4166747 -4.7511573 6.4166747 -6 8 C-6.99 7.67 -7.98 7.34 -9 7 C-7.88121617 5.82737096 -6.75476949 4.66204862 -5.625 3.5 C-4.68527344 2.52546875 -4.68527344 2.52546875 -3.7265625 1.53125 C-2 0 -2 0 0 0 Z " fill="#CD5EAE" transform="translate(771,457)"/>
<path d="M0 0 C0 4.15560231 -2.2820452 5.84099329 -5 8.6875 C-5.47695313 9.19861328 -5.95390625 9.70972656 -6.4453125 10.23632812 C-7.62359915 11.49709484 -8.81095253 12.74937686 -10 14 C-10.99 13.67 -11.98 13.34 -13 13 C-8.71 8.71 -4.42 4.42 0 0 Z " fill="#DB61B3" transform="translate(697,362)"/>
<path d="M0 0 C0.66 0.66 1.32 1.32 2 2 C-0.97 5.3 -3.94 8.6 -7 12 C-7.66 11.01 -8.32 10.02 -9 9 C-7.87895467 7.68412059 -6.75303035 6.37239647 -5.625 5.0625 C-4.99851562 4.33160156 -4.37203125 3.60070312 -3.7265625 2.84765625 C-2 1 -2 1 0 0 Z " fill="#170811" transform="translate(731,323)"/>
<path d="M0 0 C1.98 0.66 3.96 1.32 6 2 C6 2.66 6 3.32 6 4 C6.598125 4.103125 7.19625 4.20625 7.8125 4.3125 C10.32332981 5.10161794 11.28175296 6.04744654 13 8 C13.66 8.66 14.32 9.32 15 10 C10.02953882 10 8.97054293 8.71708732 5.25 5.5625 C4.26515625 4.73878906 3.2803125 3.91507813 2.265625 3.06640625 C1.51796875 2.38449219 0.7703125 1.70257812 0 1 C0 0.67 0 0.34 0 0 Z " fill="#8549C0" transform="translate(519,921)"/>
<path d="M0 0 C0 4.31618166 -2.13270348 5.92789659 -5 9 C-5.66 9 -6.32 9 -7 9 C-7.66 10.32 -8.32 11.64 -9 13 C-9.99 12.67 -10.98 12.34 -12 12 C-11.01 11.67 -10.02 11.34 -9 11 C-8.30640354 9.68047502 -7.64334704 8.34474043 -7 7 C-5.2734375 5.078125 -5.2734375 5.078125 -3.375 3.25 C-2.74335937 2.63640625 -2.11171875 2.0228125 -1.4609375 1.390625 C-0.73777344 0.70226562 -0.73777344 0.70226562 0 0 Z " fill="#AA4CAB" transform="translate(747,650)"/>
<path d="M0 0 C4.13621084 3.3810038 7.81316569 6.66590534 11 11 C8 11 8 11 5.73828125 9.03125 C4.93777344 8.1959375 4.13726563 7.360625 3.3125 6.5 C2.50425781 5.6646875 1.69601562 4.829375 0.86328125 3.96875 C0.24839844 3.3190625 -0.36648438 2.669375 -1 2 C-0.67 1.34 -0.34 0.68 0 0 Z " fill="#1C0A16" transform="translate(778,462)"/>
<path d="M0 0 C-1.31104449 3.93313346 -3.82495822 5.36757006 -7.0625 7.6875 C-7.63033203 8.10322266 -8.19816406 8.51894531 -8.78320312 8.94726562 C-10.18403173 9.97140082 -11.59140348 10.98657535 -13 12 C-13 11.01 -13 10.02 -13 9 C-10.6640625 6.73828125 -10.6640625 6.73828125 -7.625 4.3125 C-6.62726563 3.50425781 -5.62953125 2.69601562 -4.6015625 1.86328125 C-2 0 -2 0 0 0 Z " fill="#E368BD" transform="translate(1042,609)"/>
<path d="M0 0 C1.32 0.33 2.64 0.66 4 1 C0.04 3.97 -3.92 6.94 -8 10 C-8.33 9.01 -8.66 8.02 -9 7 C-8.43410156 6.66226563 -7.86820313 6.32453125 -7.28515625 5.9765625 C-6.55167969 5.53054688 -5.81820312 5.08453125 -5.0625 4.625 C-4.33160156 4.18414063 -3.60070312 3.74328125 -2.84765625 3.2890625 C-0.86227728 2.1226016 -0.86227728 2.1226016 0 0 Z " fill="#8048CC" transform="translate(711,941)"/>
<path d="M0 0 C0.99 0.33 1.98 0.66 3 1 C-3.435 5.95 -3.435 5.95 -10 11 C-10.33 10.34 -10.66 9.68 -11 9 C-8.80061401 6.71813703 -6.498574 4.69964486 -4 2.75 C-3.319375 2.20859375 -2.63875 1.6671875 -1.9375 1.109375 C-1.298125 0.74328125 -0.65875 0.3771875 0 0 Z " fill="#844ACD" transform="translate(736,922)"/>
<path d="M0 0 C0.66 0.33 1.32 0.66 2 1 C0.6875 3 0.6875 3 -1 5 C-1.99 5 -2.98 5 -4 5 C-4.33 5.99 -4.66 6.98 -5 8 C-7.4375 9.75 -7.4375 9.75 -10 11 C-10.66 10.67 -11.32 10.34 -12 10 C-8.04 6.7 -4.08 3.4 0 0 Z " fill="#8145C3" transform="translate(667,902)"/>
<path d="M0 0 C0.66 0.33 1.32 0.66 2 1 C0.21326795 2.5058745 -1.57953508 4.0045485 -3.375 5.5 C-4.87160156 6.75296875 -4.87160156 6.75296875 -6.3984375 8.03125 C-9 10 -9 10 -11 10 C-10.67 9.01 -10.34 8.02 -10 7 C-9.01 7 -8.02 7 -7 7 C-6.773125 6.401875 -6.54625 5.80375 -6.3125 5.1875 C-4.6388703 2.39811716 -2.91182274 1.3831158 0 0 Z " fill="#E066C5" transform="translate(1042,682)"/>
<path d="M0 0 C-3.96 2.97 -7.92 5.94 -12 9 C-12 8.01 -12 7.02 -12 6 C-11.34 6 -10.68 6 -10 6 C-9.773125 5.401875 -9.54625 4.80375 -9.3125 4.1875 C-6.97261664 0.2876944 -4.37899641 -1.45966547 0 0 Z " fill="#7D49CB" transform="translate(696,957)"/>
<path d="M0 0 C0.66 0.66 1.32 1.32 2 2 C-0.97 4.64 -3.94 7.28 -7 10 C-7.99 9.67 -8.98 9.34 -10 9 C-6.83047153 5.73991357 -3.60062011 2.77762123 0 0 Z " fill="#9C4CC5" transform="translate(785,809)"/>
<path d="M0 0 C0.66 0.66 1.32 1.32 2 2 C0.02 2.99 0.02 2.99 -2 4 C-2 4.66 -2 5.32 -2 6 C-3.75 7.7265625 -3.75 7.7265625 -6 9.625 C-6.7425 10.25664062 -7.485 10.88828125 -8.25 11.5390625 C-8.8275 12.02117187 -9.405 12.50328125 -10 13 C-10.66 12.67 -11.32 12.34 -12 12 C-8.04 8.04 -4.08 4.08 0 0 Z " fill="#1F0916" transform="translate(744,407)"/>
<path d="M0 0 C0.99 0.33 1.98 0.66 3 1 C-0.63 4.3 -4.26 7.6 -8 11 C-8 8 -8 8 -6.25 5.95703125 C-5.5075 5.24933594 -4.765 4.54164063 -4 3.8125 C-2.88625 2.73935547 -2.88625 2.73935547 -1.75 1.64453125 C-1.1725 1.10183594 -0.595 0.55914062 0 0 Z " fill="#E467C4" transform="translate(460,482)"/>
<path d="M0 0 C1.12894876 0.93274109 2.25300876 1.87140122 3.375 2.8125 C4.00148438 3.33457031 4.62796875 3.85664063 5.2734375 4.39453125 C7 6 7 6 9 9 C6 9 6 9 4.17578125 7.46875 C3.56089844 6.8190625 2.94601562 6.169375 2.3125 5.5 C1.68988281 4.8503125 1.06726563 4.200625 0.42578125 3.53125 C-0.04472656 3.0259375 -0.51523437 2.520625 -1 2 C-0.67 1.34 -0.34 0.68 0 0 Z " fill="#13040D" transform="translate(479,372)"/>
<path d="M0 0 C0.66 0.66 1.32 1.32 2 2 C-0.64 4.64 -3.28 7.28 -6 10 C-6.33 9.01 -6.66 8.02 -7 7 C-4.69 4.69 -2.38 2.38 0 0 Z " fill="#0A0308" transform="translate(700,525)"/>
<path d="M0 0 C0.33 0.99 0.66 1.98 1 3 C-0.40445835 5.2636564 -2.1967913 7.0208685 -4 9 C-5.32 8.67 -6.64 8.34 -8 8 C-5.36 5.36 -2.72 2.72 0 0 Z " fill="#DE62AE" transform="translate(739,318)"/>
<path d="M0 0 C2.475 0.495 2.475 0.495 5 1 C5 1.66 5 2.32 5 3 C6.32 3.33 7.64 3.66 9 4 C9.33 5.32 9.66 6.64 10 8 C6.25718301 5.61820737 3.02272532 3.25524265 0 0 Z " fill="#7342B2" transform="translate(553,948)"/>
<path d="M0 0 C1.32 0 2.64 0 4 0 C4 0.66 4 1.32 4 2 C4.66 2 5.32 2 6 2 C6 2.66 6 3.32 6 4 C7.32 4.33 8.64 4.66 10 5 C10 5.99 10 6.98 10 8 C6.25718301 5.61820737 3.02272532 3.25524265 0 0 Z " fill="#8E4CC4" transform="translate(501,907)"/>
<path d="M0 0 C3.15330554 0.60694155 5.18888867 1.6416665 7.75 3.5625 C8.67039062 4.24505859 8.67039062 4.24505859 9.609375 4.94140625 C10.29773438 5.46541016 10.29773438 5.46541016 11 6 C10.67 6.99 10.34 7.98 10 9 C8.33043913 7.69118353 6.66441696 6.37785174 5 5.0625 C4.071875 4.33160156 3.14375 3.60070312 2.1875 2.84765625 C1.465625 2.23792969 0.74375 1.62820313 0 1 C0 0.67 0 0.34 0 0 Z " fill="#BC58B0" transform="translate(291,743)"/>
<path d="M0 0 C0.66 0.33 1.32 0.66 2 1 C0.37982158 2.33918806 -1.24629343 3.6711969 -2.875 5 C-4.23238281 6.11375 -4.23238281 6.11375 -5.6171875 7.25 C-8 9 -8 9 -10 9 C-10 8.34 -10 7.68 -10 7 C-9.360625 6.896875 -8.72125 6.79375 -8.0625 6.6875 C-7.381875 6.460625 -6.70125 6.23375 -6 6 C-5.67 5.01 -5.34 4.02 -5 3 C-4.01 3 -3.02 3 -2 3 C-2 2.34 -2 1.68 -2 1 C-1.34 0.67 -0.68 0.34 0 0 Z " fill="#DC65C5" transform="translate(1028,693)"/>
<path d="M0 0 C0 3.63053243 -1.2278255 4.95750337 -3.5546875 7.63671875 C-5.49136818 9.46347972 -7.46012234 10.27432067 -10 11 C-6.79239749 7.19364503 -3.59253891 3.45436433 0 0 Z " fill="#AB4EB3" transform="translate(714,684)"/>
<path d="M0 0 C0.99 0.33 1.98 0.66 3 1 C0.69 3.31 -1.62 5.62 -4 8 C-4.99 7.67 -5.98 7.34 -7 7 C-4.69 4.69 -2.38 2.38 0 0 Z " fill="#D35EB7" transform="translate(739,488)"/>
<path d="M0 0 C0.66 0.66 1.32 1.32 2 2 C0.625 3.5 0.625 3.5 -1 5 C-1.66 5 -2.32 5 -3 5 C-3 5.66 -3 6.32 -3 7 C-5 8.625 -5 8.625 -7 10 C-7.66 9.67 -8.32 9.34 -9 9 C-6.03 6.03 -3.06 3.06 0 0 Z " fill="#1B0813" transform="translate(809,340)"/>
<path d="M0 0 C-1.5830577 4.2742558 -4.50568404 6.26531794 -8 9 C-8 6 -8 6 -6.7578125 4.39453125 C-5.94957031 3.61142578 -5.94957031 3.61142578 -5.125 2.8125 C-4.59132813 2.28269531 -4.05765625 1.75289062 -3.5078125 1.20703125 C-2 0 -2 0 0 0 Z " fill="#CB5CC4" transform="translate(478,639)"/>
<path d="M0 0 C1.98 1.65 3.96 3.3 6 5 C3.66666667 5 1.33333333 5 -1 5 C-1.99 5.33 -2.98 5.66 -4 6 C-2.84826645 3.53199953 -1.95216435 1.95216435 0 0 Z " fill="#CC5DC5" transform="translate(768,629)"/>
<path d="M0 0 C0.33 0.99 0.66 1.98 1 3 C-1.31 4.98 -3.62 6.96 -6 9 C-6.66 8.67 -7.32 8.34 -8 8 C-5.36 5.36 -2.72 2.72 0 0 Z " fill="#B851AC" transform="translate(651,579)"/>
<path d="M0 0 C0.99 0.33 1.98 0.66 3 1 C-0.96 4.465 -0.96 4.465 -5 8 C-5.66 7.67 -6.32 7.34 -7 7 C-4.69 4.69 -2.38 2.38 0 0 Z " fill="#CA57B5" transform="translate(707,521)"/>
<path d="M0 0 C0.33 0.66 0.66 1.32 1 2 C-0.12104533 3.31587941 -1.24696965 4.62760353 -2.375 5.9375 C-3.00148438 6.66839844 -3.62796875 7.39929688 -4.2734375 8.15234375 C-6 10 -6 10 -8 11 C-6.63629701 8.00779732 -5.05091917 5.70973471 -2.875 3.25 C-2.33617187 2.63640625 -1.79734375 2.0228125 -1.2421875 1.390625 C-0.62730469 0.70226562 -0.62730469 0.70226562 0 0 Z " fill="#D35CAD" transform="translate(660,400)"/>
<path d="M0 0 C0.556875 0.309375 1.11375 0.61875 1.6875 0.9375 C4.12540433 2.05761821 6.36224186 2.56037364 9 3 C7.68 4.32 6.36 5.64 5 7 C3.29115995 5.37660195 1.62553283 3.70680947 0 2 C0 1.34 0 0.68 0 0 Z " fill="#9B56CB" transform="translate(624,854)"/>
<path d="M0 0 C0 0.99 0 1.98 0 3 C-1.75 4.60546875 -1.75 4.60546875 -4 6.1875 C-4.7425 6.71730469 -5.485 7.24710938 -6.25 7.79296875 C-6.8275 8.19128906 -7.405 8.58960938 -8 9 C-8.66 8.67 -9.32 8.34 -10 8 C-6.7 5.36 -3.4 2.72 0 0 Z " fill="#914DC4" transform="translate(741,844)"/>
<path d="M0 0 C0.99 0.33 1.98 0.66 3 1 C-0.465 3.97 -0.465 3.97 -4 7 C-4.66 6.67 -5.32 6.34 -6 6 C-2.25 1.125 -2.25 1.125 0 0 Z " fill="#CA5BC2" transform="translate(914,708)"/>
<path d="M0 0 C0 3 0 3 -2.25 5.75 C-3.1575 6.4925 -4.065 7.235 -5 8 C-6.32 7.67 -7.64 7.34 -9 7 C-6.03 4.69 -3.06 2.38 0 0 Z " fill="#964DC9" transform="translate(751,836)"/>
<path d="M0 0 C0.99 0.33 1.98 0.66 3 1 C0.69 3.31 -1.62 5.62 -4 8 C-4.33 7.01 -4.66 6.02 -5 5 C-3.35 3.35 -1.7 1.7 0 0 Z " fill="#C75AC3" transform="translate(761,636)"/>
<path d="M0 0 C2.31 1.98 4.62 3.96 7 6 C6.34 6.66 5.68 7.32 5 8 C3.02 5.69 1.04 3.38 -1 1 C-0.67 0.67 -0.34 0.34 0 0 Z " fill="#BB55BD" transform="translate(602,662)"/>
<path d="M0 0 C0.33 0.66 0.66 1.32 1 2 C-0.65 3.98 -2.3 5.96 -4 8 C-4.99 7.67 -5.98 7.34 -7 7 C-4.69 4.69 -2.38 2.38 0 0 Z " fill="#B650B2" transform="translate(755,642)"/>
<path d="M0 0 C1.98 0.99 1.98 0.99 4 2 C3.67 2.99 3.34 3.98 3 5 C2.34 5 1.68 5 1 5 C0.67 6.32 0.34 7.64 0 9 C0 6.03 0 3.06 0 0 Z " fill="#F67BCE" transform="translate(212,606)"/>
<path d="M0 0 C2.31 1.98 4.62 3.96 7 6 C6.34 6.66 5.68 7.32 5 8 C2.5 5.6875 2.5 5.6875 0 3 C0 2.01 0 1.02 0 0 Z " fill="#11040E" transform="translate(499,560)"/>
<path d="M0 0 C3.25543229 0.34879632 4.01873107 1.02133261 6.25 3.5625 C6.8275 4.366875 7.405 5.17125 8 6 C5 6 5 6 3.61328125 4.6875 C2.40885417 3.125 1.20442708 1.5625 0 0 Z " fill="#BC56AA" transform="translate(491,551)"/>
<path d="M0 0 C0.66 0.33 1.32 0.66 2 1 C1.67 1.99 1.34 2.98 1 4 C-0.65 4.33 -2.3 4.66 -4 5 C-2.68 3.35 -1.36 1.7 0 0 Z M-6 5 C-5.34 5.33 -4.68 5.66 -4 6 C-4.99 6 -5.98 6 -7 6 C-6.67 5.67 -6.34 5.34 -6 5 Z " fill="#0E061B" transform="translate(685,964)"/>
<path d="M0 0 C0.33 0.99 0.66 1.98 1 3 C-1.97 5.475 -1.97 5.475 -5 8 C-4.45773019 4.20411134 -2.79872437 2.52788007 0 0 Z " fill="#A950B9" transform="translate(744,741)"/>
<path d="M0 0 C0.99 0.33 1.98 0.66 3 1 C0.69 3.31 -1.62 5.62 -4 8 C-4 5 -4 5 -3 3 C-2.34 3 -1.68 3 -1 3 C-0.67 2.01 -0.34 1.02 0 0 Z " fill="#C159C7" transform="translate(639,680)"/>
<path d="M0 0 C2 2 4 4 6 6 C5.01 6.33 4.02 6.66 3 7 C1.68 5.68 0.36 4.36 -1 3 C-0.67 2.01 -0.34 1.02 0 0 Z " fill="#28111E" transform="translate(506,302)"/>
<path d="M0 0 C0.33 1.32 0.66 2.64 1 4 C0.01 4.495 0.01 4.495 -1 5 C-1.66 4.34 -2.32 3.68 -3 3 C-2.01 2.01 -1.02 1.02 0 0 Z " fill="#A949B4" transform="translate(698,700)"/>
<path d="M0 0 C4.24822374 0.47202486 6.19989709 2.96655518 9 6 C5.06326356 4.68775452 2.77280706 3.08089673 0 0 Z " fill="#D25DBD" transform="translate(329,698)"/>
<path d="M0 0 C3.36720387 1.39332574 4.9859524 2.9789286 7 6 C3.75728494 5.4409112 2.06942576 4.5867822 0 2 C0 1.34 0 0.68 0 0 Z " fill="#BF53AA" transform="translate(563,535)"/>
<path d="M0 0 C0.66 0.66 1.32 1.32 2 2 C-0.97 4.475 -0.97 4.475 -4 7 C-4 4 -4 4 -2 1.8125 C-1.34 1.214375 -0.68 0.61625 0 0 Z " fill="#10050B" transform="translate(472,467)"/>
<path d="M0 0 C0.33 0.66 0.66 1.32 1 2 C-0.32 3.65 -1.64 5.3 -3 7 C-3.99 6.67 -4.98 6.34 -6 6 C-4.02 4.02 -2.04 2.04 0 0 Z " fill="#D75EAF" transform="translate(713,345)"/>
<path d="M0 0 C0.66 0 1.32 0 2 0 C1.6875 1.875 1.6875 1.875 1 4 C0.01 4.66 -0.98 5.32 -2 6 C-2 2 -2 2 0 0 Z " fill="#220E19" transform="translate(751,302)"/>
</svg>
